<?xml version="1.0" encoding="UTF-8"?>
<svg version="1.1" xmlns="http://www.w3.org/2000/svg" width="307" height="325">
<path d="M0 0 C0.70334473 0.23525391 1.40668945 0.47050781 2.13134766 0.71289062 C10.62261279 3.61322395 18.9696045 7.32891174 26 13 C26 13.66 26 14.32 26 15 C24.76765625 14.73445313 23.5353125 14.46890625 22.265625 14.1953125 C-13.28469927 6.58432598 -46.42332316 4.63229923 -79 23 C-79.98484375 23.54398438 -80.9696875 24.08796875 -81.984375 24.6484375 C-107.14490485 39.55568785 -126.45838963 68.68903987 -134.2265625 96.5546875 C-141.2364885 127.78072152 -136.61791138 156.89809869 -119.953125 184.49609375 C-114.58851618 192.74686212 -108.5053326 200.69422974 -101.4375 207.5625 C-100.2309375 208.7690625 -100.2309375 208.7690625 -99 210 C-99 210.66 -99 211.32 -99 212 C-98.40775635 212.27199219 -97.8155127 212.54398438 -97.20532227 212.82421875 C-95.05190775 213.97232506 -93.51138304 215.17550312 -91.71484375 216.8125 C-81.31344847 225.92789453 -69.15142723 231.99049589 -56 236 C-55.36030273 236.20882812 -54.72060547 236.41765625 -54.06152344 236.6328125 C-31.30976074 243.85486876 -5.21935441 240.98444393 17.5534668 235.57250977 C20.02663152 234.993768 22.50705186 234.48566096 25 234 C23.96263599 237.39225602 22.79545472 238.12364484 19.69140625 240 C18.32231935 240.68136109 16.9454751 241.34728893 15.5625 242 C14.83530762 242.35030273 14.10811523 242.70060547 13.35888672 243.06152344 C7.6764782 245.76000732 2.03970143 248.20808858 -4 250 C-5.14855469 250.37125 -6.29710937 250.7425 -7.48046875 251.125 C-38.29109472 260.07273296 -74.67561013 254.03872905 -102.56201172 239.16699219 C-132.51852277 222.40471571 -154.60444597 194.16038582 -164.74609375 161.5390625 C-165.17111035 160.02800631 -165.58844637 158.51477838 -166 157 C-166.26562744 156.08686035 -166.53125488 155.1737207 -166.80493164 154.23291016 C-169.37715402 144.53366376 -169.59698751 135.09129131 -169.5625 125.125 C-169.5620166 124.2651651 -169.5615332 123.4053302 -169.56103516 122.5194397 C-169.50555735 108.30308782 -168.13971225 95.37514808 -163 82 C-162.69497559 81.19385254 -162.38995117 80.38770508 -162.07568359 79.55712891 C-155.71303747 63.20880104 -146.88943701 48.8661674 -135 36 C-134.50516113 35.45601562 -134.01032227 34.91203125 -133.50048828 34.3515625 C-117.55459011 16.98383449 -97.60725865 5.47567755 -75 -1 C-73.78699219 -1.39316406 -72.57398437 -1.78632812 -71.32421875 -2.19140625 C-49.5124232 -8.6185099 -21.36141875 -7.41736208 0 0 Z " fill="#3E59A5" transform="translate(199,36)"/>
<path d="M0 0 C6.48076788 6.02831181 11.19419942 12.10003356 12 21.125 C11.57718303 25.8605501 10.25182588 29.06067412 6.875 32.4375 C3.07083264 34.50261942 -0.05505272 34.80837773 -4.3125 34.1875 C-8.62404848 31.94190183 -10.58181824 28.55552677 -13.3125 24.625 C-18.23799775 17.7342784 -22.9815941 14.50122385 -31.3125 12.625 C-38.75845286 11.53443115 -46.90467161 13.08296218 -53.42578125 16.84375 C-58.75250488 20.95000377 -61.36814406 26.25535303 -62.7734375 32.7578125 C-63.11301917 35.39186491 -63.23594332 37.96881622 -63.3125 40.625 C-63.33296387 41.30916992 -63.35342773 41.99333984 -63.37451172 42.69824219 C-64.4022558 62.43624113 -64.4022558 62.43624113 -57.3359375 80.171875 C-56.3125 81.625 -56.3125 81.625 -56.3125 83.625 C-55.73371094 83.91117187 -55.15492188 84.19734375 -54.55859375 84.4921875 C-53.16061151 85.1972568 -51.77472409 85.92756797 -50.41015625 86.6953125 C-43.20903113 90.42718156 -35.58265019 91.04204945 -27.7265625 88.9296875 C-18.99607452 85.38385791 -13.85731755 79.45219209 -8.79296875 71.69921875 C-7.3125 69.625 -7.3125 69.625 -5.3125 68.625 C4.00599281 67.43955567 4.00599281 67.43955567 7.48828125 69.89453125 C11.07426988 74.24214579 12.10157281 77.58708878 12.03125 83.0546875 C11.03712513 90.48803028 6.2042514 97.67975139 0.6875 102.625 C-12.9608193 112.93221074 -27.512734 115.99107094 -44.3125 114.625 C-48.87468218 113.7432337 -53.0207037 112.39050213 -57.3125 110.625 C-58.19292969 110.274375 -59.07335937 109.92375 -59.98046875 109.5625 C-71.5863134 104.38035541 -81.3100202 94.30302977 -86.3125 82.625 C-91.92643069 62.43333159 -94.48531187 33.88889383 -84.46484375 14.56640625 C-84.08457031 13.92574219 -83.70429688 13.28507812 -83.3125 12.625 C-82.88066406 11.87089844 -82.44882813 11.11679688 -82.00390625 10.33984375 C-74.89681779 -1.19713724 -64.03460814 -7.64556343 -51.16796875 -11.2578125 C-32.7484699 -14.75924334 -14.65561946 -12.15750251 0 0 Z " fill="#A13476" transform="translate(245.3125,108.375)"/>
<path d="M0 0 C2.18923782 3.3620438 2.67853166 5.68527322 2.75 9.6875 C1.98968449 12.95685671 0.95573055 14.46306668 -1.3125 16.9375 C-7.09810451 20.38424311 -12.81655414 19.84552025 -19.25 18.6875 C-28.23287923 18.06612733 -28.23287923 18.06612733 -36.25 21.6875 C-40.17597553 26.96726019 -40.39664246 31.80548199 -40.3918457 38.20654297 C-40.39532013 38.95826782 -40.39879456 39.70999268 -40.40237427 40.48449707 C-40.40971423 42.11376078 -40.41506897 43.74303437 -40.41866493 45.37231064 C-40.42584762 47.95354004 -40.44152715 50.53458125 -40.46000671 53.11575317 C-40.51239502 60.4536076 -40.56045344 67.79135704 -40.57592773 75.12939453 C-40.58601984 79.62108286 -40.61537231 84.11229434 -40.65724754 88.6037941 C-40.66954197 90.31252559 -40.67468164 92.02132446 -40.67244911 93.73009872 C-40.67009095 96.12380478 -40.69229864 98.51614661 -40.7199707 100.90966797 C-40.71336929 101.61116974 -40.70676788 102.31267151 -40.69996643 103.03543091 C-40.79426915 108.01824036 -42.16040546 110.83034421 -45.25 114.6875 C-48.71192259 117.57243549 -51.73501827 118.2223575 -56.25390625 118.04296875 C-60.31536908 117.31969455 -63.22946648 115.14540503 -65.5625 111.8125 C-67.15549689 106.88869144 -67.37863905 101.99213727 -67.39526367 96.8503418 C-67.40030159 95.86586311 -67.40030159 95.86586311 -67.40544128 94.86149597 C-67.41489415 92.70321728 -67.41689249 90.54501684 -67.41796875 88.38671875 C-67.42118863 86.86660227 -67.42455323 85.34648609 -67.42805481 83.82637024 C-67.43403441 80.63806442 -67.43589625 77.44978564 -67.43530273 74.26147461 C-67.43520196 70.2253961 -67.44877129 66.18949687 -67.46607494 62.1534605 C-67.47734199 59.00880684 -67.47921739 55.86419424 -67.47869301 52.71952248 C-67.47985434 51.23475345 -67.48416878 49.74998269 -67.49202538 48.26523399 C-67.53037336 40.25991049 -67.25370791 32.38800997 -66.3449707 24.42895508 C-66.26529902 23.72155276 -66.18562735 23.01415045 -66.10354137 22.2853117 C-65.45039507 17.08408079 -64.34333323 12.92688783 -61.25 8.6875 C-60.80527344 8.06617187 -60.36054687 7.44484375 -59.90234375 6.8046875 C-47.1511656 -9.44881425 -16.47354283 -11.72155932 0 0 Z " fill="#604193" transform="translate(156.25,105.3125)"/>
<path d="M0 0 C0.80244141 0.00064453 1.60488281 0.00128906 2.43164062 0.00195312 C6.12284993 0.02952232 9.36576272 0.18296455 12.9375 1.1875 C11.39368208 13.88891103 -3.24034866 27.47351238 -12.85693359 35.22509766 C-19.225135 40.16636775 -25.93667289 44.42126801 -33.0625 48.1875 C-33.908125 48.63738281 -34.75375 49.08726562 -35.625 49.55078125 C-60.48214085 61.78989176 -92.14914709 64.05695579 -118.375 55.4375 C-125.19667956 53.08747903 -132.23619404 50.52986165 -138.0625 46.1875 C-138.5575 44.7025 -138.5575 44.7025 -139.0625 43.1875 C-135.46516394 43.66745546 -131.94800211 44.21100861 -128.390625 44.94140625 C-99.7807053 50.77394623 -69.96279496 48.22204321 -45.0625 32.1875 C-33.99761497 24.52417584 -25.17731825 15.44852131 -16.6875 5.0625 C-11.7830459 -0.30904496 -6.85176829 -0.10507151 0 0 Z " fill="#97327D" transform="translate(265.0625,214.8125)"/>
<path d="M0 0 C0.94649414 0.22598877 0.94649414 0.22598877 1.91210938 0.45654297 C21.67831427 5.30494525 39.30492902 14.89273186 54 29 C54.7115625 29.66 55.423125 30.32 56.15625 31 C63.10111495 37.62433273 68.64062864 45.45563213 73 54 C73 54.99 73 55.98 73 57 C69.16746871 57.20505665 65.33636234 57.32820828 61.5 57.4375 C60.42234375 57.49615234 59.3446875 57.55480469 58.234375 57.61523438 C52.62670718 57.73491021 48.91234955 57.58527229 44.5546875 53.83984375 C43.33846412 52.58962557 42.15090117 51.3105996 41 50 C40.51112305 49.48655029 40.02224609 48.97310059 39.51855469 48.4440918 C38.18868253 47.03391914 36.90614083 45.57958759 35.625 44.125 C17.30074536 23.77499646 -5.57739309 11.78881706 -33.02978516 9.85717773 C-48.6978804 9.1325237 -63.69839257 11.92153973 -79 15 C-79 14.01 -79 13.02 -79 12 C-54.10073238 -0.87139054 -28.05898786 -6.87085472 0 0 Z " fill="#97327D" transform="translate(205,48)"/>
</svg>
